<svg width="30" height="24" viewBox="0 0 30 24" fill="none" xmlns="http://www.w3.org/2000/svg">
<g clip-path="url(#clip0_4454_876)">
<path d="M16.7711 15.3597C16.7711 16.3761 15.8912 17.0113 15.1118 17.0113C14.3324 17.0113 13.3974 16.6955 13.3974 15.3597V14.7101H12.3707V15.3597C12.3707 16.839 13.6008 18.0422 15.1118 18.0422C16.6228 18.0422 17.853 16.839 17.853 15.3597V14.7101H16.7711V15.3597Z" fill="#130B43"/>
<path d="M8.14791 12.2226C8.14791 11.2519 8.98972 10.4626 10.024 10.4626C11.0576 10.4626 11.8994 11.2526 11.8994 12.2226H13.0811C13.0811 10.64 11.7104 9.35297 10.024 9.35297C8.33759 9.35297 6.96619 10.64 6.96619 12.2226H8.14791Z" fill="#130B43"/>
<path d="M17.8859 12.2226C17.8859 11.2519 18.7277 10.4626 19.7613 10.4626C20.7956 10.4626 21.6374 11.2526 21.6374 12.2226H22.8191C22.8191 10.64 21.4477 9.35297 19.7613 9.35297C18.0749 9.35297 16.7042 10.64 16.7042 12.2226H17.8859Z" fill="#130B43"/>
<path fill-rule="evenodd" clip-rule="evenodd" d="M24.7258 8.45799V4.64365C24.7258 3.35822 24.5695 2.46635 24.257 1.96801C23.9445 1.46968 23.2938 1.08545 22.3048 0.815328C22.0063 0.731496 21.857 0.596435 21.857 0.410141C21.857 0.158644 22.1929 0.0328979 22.8646 0.0328979H23.8862C24.9964 0.0328979 25.8383 0.377536 26.4121 1.06682C26.9858 1.75611 27.2727 2.76208 27.2727 4.08477V8.10869C27.2727 9.04016 27.373 9.75738 27.5736 10.2604C27.7742 10.7634 28.145 11.2338 28.6861 11.6715C28.8447 11.8019 28.924 11.9091 28.924 11.9929C28.924 12.0767 28.8447 12.1838 28.6861 12.3143C28.1357 12.7614 27.7625 13.2341 27.5666 13.7324C27.3707 14.2307 27.2727 14.9456 27.2727 15.8771V19.8871C27.2727 21.2191 26.9835 22.2297 26.4051 22.919C25.8267 23.6083 24.987 23.9529 23.8862 23.9529H22.8646C22.4261 23.9529 22.1486 23.9319 22.032 23.89C21.9153 23.8481 21.857 23.7433 21.857 23.5757C21.857 23.3428 22.011 23.1891 22.3188 23.1146L22.8786 22.9888C24.1101 22.7094 24.7258 21.4938 24.7258 19.3422V15.5278C24.7258 14.084 25.0756 13.0641 25.7754 12.4679L26.0412 12.2444C26.1718 12.1326 26.2372 12.0488 26.2372 11.9929C26.2372 11.9277 26.1718 11.8439 26.0412 11.7414L25.7754 11.5179C25.0756 10.9217 24.7258 9.90177 24.7258 8.45799Z" fill="#130B43"/>
<path fill-rule="evenodd" clip-rule="evenodd" d="M5.32321 8.42509V4.61075C5.32321 3.32532 5.47948 2.43345 5.79201 1.93512C6.10455 1.43678 6.75526 1.05256 7.74418 0.78243C8.04272 0.698598 8.19199 0.563537 8.19199 0.377243C8.19199 0.125746 7.85613 0 7.18442 0H6.16285C5.05266 0 4.21069 0.344638 3.63693 1.03393C3.06318 1.72321 2.7763 2.72918 2.7763 4.05187V8.0758C2.7763 9.00726 2.67601 9.72448 2.47543 10.2275C2.27485 10.7305 1.90401 11.2009 1.36291 11.6386C1.20431 11.7691 1.12501 11.8762 1.12501 11.96C1.12501 12.0438 1.20431 12.151 1.36291 12.2814C1.91334 12.7285 2.28651 13.2012 2.48243 13.6995C2.67835 14.1978 2.7763 14.9127 2.7763 15.8442V19.8542C2.7763 21.1862 3.06551 22.1968 3.64393 22.8861C4.22235 23.5754 5.06199 23.92 6.16285 23.92H7.18442C7.6229 23.92 7.90044 23.899 8.01706 23.8571C8.13368 23.8152 8.19199 23.7104 8.19199 23.5428C8.19199 23.3099 8.03805 23.1562 7.73018 23.0817L7.17042 22.9559C5.93894 22.6765 5.32321 21.4609 5.32321 19.3093V15.4949C5.32321 14.0511 4.97337 13.0312 4.27366 12.435L4.00778 12.2115C3.87716 12.0997 3.81186 12.0159 3.81186 11.96C3.81186 11.8948 3.87716 11.811 4.00778 11.7085L4.27366 11.485C4.97337 10.8888 5.32321 9.86887 5.32321 8.42509Z" fill="#130B43"/>
</g>
<defs>
<clipPath id="clip0_4454_876">
<rect width="27.8131" height="24" fill="white" transform="translate(1.125)"/>
</clipPath>
</defs>
</svg>
